<?xml version="1.0" encoding="utf-8"?>
<!-- Generator: Adobe Illustrator 20.0.0, SVG Export Plug-In . SVG Version: 6.00 Build 0)  -->
<svg version="1.1" id="Layer_1" xmlns="http://www.w3.org/2000/svg" xmlns:xlink="http://www.w3.org/1999/xlink" x="0px" y="0px"
	 viewBox="0 0 577 139.7" style="enable-background:new 0 0 577 139.7;" xml:space="preserve">
<style type="text/css">
	.st0{fill:#FFFFFF;}
</style>
<title>Artboard 1</title>
<path class="st0" d="M30.3,137.8H0V2.2c19.3-0.7,31.5-1,36.5-1c19.9,0,35.7,5.8,47.4,17.4s17.5,26.9,17.5,46.1
	C101.4,113.4,77.7,137.7,30.3,137.8L30.3,137.8z M24.3,23.2v92.5c3.9,0.4,8.1,0.6,12.7,0.6c12.2,0,21.8-4.4,28.7-13.2
	s10.4-21.1,10.4-37c0-29-13.6-43.5-40.7-43.5C32.8,22.6,29.1,22.8,24.3,23.2L24.3,23.2z M133.6,0c3.6,0,7.1,1.4,9.6,4
	c5.2,5.2,5.3,13.6,0.1,18.9l-0.1,0.1c-5.3,5.3-13.9,5.3-19.2,0c-5.2-5.2-5.3-13.6-0.1-18.9L124,4C126.5,1.4,129.9,0,133.6,0L133.6,0
	z M121.5,137.8V57.5h-12.8v-19h36.5v99.3H121.5z M198,137.8h-30.4V2.2c19.3-0.7,31.5-1,36.5-1c19.9,0,35.7,5.8,47.4,17.4
	c11.7,11.5,17.5,26.8,17.5,46C269,113.4,245.3,137.8,198,137.8z M191.9,23.2v92.5c3.9,0.4,8.1,0.6,12.7,0.6
	c12.2,0,21.8-4.4,28.8-13.2s10.4-21.1,10.4-37c0-29-13.6-43.5-40.7-43.5C200.4,22.6,196.7,22.8,191.9,23.2L191.9,23.2z M338.7,127.8
	c-2.1,3.4-5.8,6.3-11.1,8.5c-5.2,2.2-10.8,3.3-16.5,3.3c-10.7,0-19.2-2.7-25.4-8c-6.1-5.3-9.2-12.9-9.2-22.8c0-11.5,4.3-20.5,13-27
	s21-9.7,37-9.7c3.3,0.1,6.5,0.5,9.7,1.3c0-11.6-7.4-17.5-22.3-17.5c-8.8,0-16.1,1.4-22,4.4l-5-18c8-3.8,17.6-5.7,28.7-5.7
	c15.2,0,26.4,3.4,33.5,10.3s10.7,19.9,10.6,39.1v21.2c0,13.2,2.7,21.5,8,24.9c-1.9,3.4-4.1,5.4-6.4,6.2c-2.6,0.8-5.4,1.2-8.1,1.2
	c-3.4,0-6.7-1.3-9.1-3.7C341.7,133.8,339.8,131,338.7,127.8L338.7,127.8z M336.4,90.8c-3-0.6-6-1-9-1.1c-18.4,0-27.6,6-27.6,18.1
	c0,8.9,5.2,13.4,15.5,13.4c14,0,21-7,21-21L336.4,90.8z M454.3,137.8l-30.8-49.5l-31.7,49.5h-25.2L411,68.1L369.8,1.9L394.7,2
	l29.2,46l29.4-45.9h25.4L436.4,68l44.3,69.8H454.3z M481,87.9c0-15.1,4.4-27.5,13.2-37c8.8-9.5,20.4-14.3,34.9-14.3
	c15.2,0,27,4.6,35.3,13.7S577,72,577,87.9c0,15.8-4.3,28.4-12.8,37.7s-20.2,14-35.1,14c-15.2,0-27-4.7-35.4-14.1
	C485.2,116.1,481,103.5,481,87.9z M505.3,87.9c0,21.8,7.9,32.8,23.8,32.8c6.8,0.2,13.3-3,17.3-8.5c4.2-5.7,6.4-13.8,6.4-24.2
	c0-21.5-7.9-32.3-23.7-32.3c-6.8-0.2-13.3,3-17.3,8.5C507.4,69.8,505.3,77.7,505.3,87.9"/>
</svg>
