<?xml version="1.0" encoding="UTF-8"?>
<svg viewBox="0 0 60 60" xmlns="http://www.w3.org/2000/svg">
 <path d="m6.6875 5.125c-1.108 0-2 0.892-2 2v46.375c0 1.108 0.892 2 2 2h22.562c-5.2335-9.2418-8.4907-13.373-13.438-17.875 0-3.6738 9.9124 1.6833 12.812 3.2188 2.4109-3.0412 22.339-26.094 26.438-23.344 2.0185 1.2986-13.814 8.8389-25.469 38h23.844c1.108 0 2-0.892 2-2v-46.375c0-1.108-0.892-2-2-2h-46.75z" fill="#b3b3b3" fill-rule="evenodd" stroke="#333" stroke-linejoin="round" stroke-width="3.125"/>
 <path transform="matrix(2.2875 0 0 2.2875 -24.551 -3.7331)" d="m24.62536,10.66123c0-.26563.07422-.48438.22266-.65625s.33594-.25781.55078-.25781c.12891,0 .25195.02344.36914.07031 .11719.04297.27344.11328.46875.21094 .19922.09375.36328.16211.49219.20508s.28516.06445.46875.06445 .3125-.03516.39844-.10547 .12891-.16601.12891-.27539c0-.09766-.02734-.17773-.08203-.24023s-.12695-.11328-.2168-.15234-.2168-.0957-.38086-.1582-.42188-.16406-.77344-.30469c-.36719-.15625-.65039-.30273-.84961-.43945s-.35351-.31836-.46289-.5332c-.10938-.21875-.16406-.49023-.16406-.81445 0-.36719.09766-.71484.29297-1.04297s.48242-.5918.84961-.79102 .79492-.30469 1.27149-.30469c.20313,0 .42969.02539.67969.07617s.48633.12695.70899.24023c.22656.10938.41016.25.55078.42188s.2168.375.2168.60938c0,.15234-.03516.29102-.10547.41602-.06641.12109-.16016.21484-.28125.28125-.11719.0625-.24805.09375-.39258.09375-.07813,0-.16406-.01758-.25781-.05273s-.21875-.0918-.38672-.16992c-.16406-.07813-.31445-.13867-.45117-.18164s-.27149-.06445-.4043-.06445c-.13672,0-.25391.0332-.35156.09961-.09375.06641-.14063.16602-.14063.29883 0,.15234.15234.29297.45703.42188s.6582.26953 1.06055.43359c.40625.16406.74219.38477 1.00781.66211s.4043.65039.4043,1.11914c0,.42969-.10742.80664-.32227,1.13086s-.50781.56641-.87891.73828-.76758.25781-1.20117.25781c-.63672,0-1.21289-.11914-1.72851-.35742-.51172-.24219-.76758-.55859-.76758-.94922zm-5.10938,0c0-.26563.07422-.48438.22266-.65625s.33594-.25781.55078-.25781c.12891,0 .25195.02344.36914.07031 .11719.04297.27344.11328.46875.21094 .19922.09375.36328.16211.49219.20508s.28516.06445.46875.06445 .3125-.03516.39844-.10547 .12891-.16601.12891-.27539c0-.09766-.02734-.17773-.08203-.24023s-.12695-.11328-.2168-.15234-.2168-.0957-.38086-.1582-.42188-.16406-.77344-.30469c-.36719-.15625-.65039-.30273-.84961-.43945s-.35351-.31836-.46289-.5332c-.10938-.21875-.16406-.49023-.16406-.81445 0-.36719.09766-.71484.29297-1.04297s.48242-.5918.84961-.79102 .79492-.30469 1.27149-.30469c.20313,0 .42969.02539.67969.07617s.48633.12695.70899.24023c.22656.10938.41016.25.55078.42188s.2168.375.2168.60938c0,.15234-.03516.29102-.10547.41602-.06641.12109-.16016.21484-.28125.28125-.11719.0625-.24805.09375-.39258.09375-.07813,0-.16406-.01758-.25781-.05273s-.21875-.0918-.38672-.16992c-.16406-.07813-.31445-.13867-.45117-.18164s-.27149-.06445-.4043-.06445c-.13672,0-.25391.0332-.35156.09961-.09375.06641-.14063.16602-.14063.29883 0,.15234.15234.29297.45703.42188s.6582.26953 1.06055.43359c.40625.16406.74219.38477 1.00781.66211s.4043.65039.4043,1.11914c0,.42969-.10742.80664-.32227,1.13086s-.50781.56641-.87891.73828-.76758.25781-1.20117.25781c-.63672,0-1.21289-.11914-1.72851-.35742-.51172-.24219-.76758-.55859-.76758-.94922zm-5.47851-2.11523c0-.62109.13281-1.19336.39844-1.7168 .26563-.52734.63672-.94141 1.11328-1.24219s1.02734-.45117 1.64063-.45117c.32422,0 .6582.03906 1.00195.11719 .34375.07422.63281.20313.86719.38672s.35156.43164.35156.74414c0,.25-.07422.45898-.22266.62695-.14453.16797-.32617.25195-.54492.25195-.10547,0-.20899-.01758-.31055-.05273l-.29883-.11133c-.09766-.04297-.20313-.07813-.31641-.10547s-.24805-.04102-.41601-.04102c-.30469,0-.5625.07227-.77344.2168s-.36328.33203-.46875.57422c-.10156.23828-.15234.50586-.15234.80273 0,.28906.05078.55859.15234.80859s.24805.44141.43945.58594c.19531.14453.42578.2168.69141.2168 .30078,0 .60351-.05664.9082-.16992s.48633-.16992.54492-.16992c.14063,0 .26953.04102.38672.12305s.20899.18945.27539.32227 .10547.26172.10547.39844c0,.28906-.12695.5332-.38086.73242s-.54883.34375-.89648.43359-.66211.14063-.94336.14063c-.46484,0-.89063-.08594-1.27734-.25781-.38281-.17188-.7168-.41601-1.00195-.73242s-.50195-.6875-.65039-1.10156c-.14844-.41797-.22266-.86133-.22266-1.33008z" fill="#333"/>
</svg>
